<svg id="Layer_1" data-name="Layer 1" xmlns="http://www.w3.org/2000/svg" viewBox="0 0 185.52 36"><defs><style>.cls-1{fill:#003e2d;}</style></defs><path class="cls-1" d="M199.73,40.57h.61c.41,0,.61.16.61.49s-.22.49-.61.49h-.61Zm1.75.49c0-.6-.41-.94-1.14-.94h-1.15v3.27h.54V42h.52l.74,1.38h.62L200.78,42a.93.93,0,0,0,.7-.91m-1.22,3.35a2.63,2.63,0,1,1,2.59-2.62,2.51,2.51,0,0,1-2.59,2.62m0-5.62a3,3,0,1,0,3,3,2.9,2.9,0,0,0-3-3" transform="translate(-17.75 -9.53)"/><path class="cls-1" d="M34.56,14.77c2.13,0,3.22.89,3.22,2.23,0,1-.79,1.83-.79,3.51A4.34,4.34,0,0,0,41.64,25c3,0,5-2.08,5-5.34,0-4.6-3.61-8.31-11.82-8.31-9.94,0-17.06,7.17-17.06,17.46,0,10.08,5.94,16.76,16,16.76,8.26,0,13.31-5.34,13.31-11.82,0-2.18-.7-2.82-1.59-2.82s-1.23.84-1.48,1.34c-1.34,2.67-3.61,5.44-8.41,5.44-5.73,0-9.19-4.85-9.19-11.67s3.75-11.23,8.15-11.23ZM59.24,44c0-.45-.34-.79-.64-1.29-.45-.84-.6-1.48-.6-3.51V28.42c0-2.67,1.79-4.85,3.66-4.85,1.69,0,2.63,1.29,2.63,3.46V39.2c0,2-.15,2.67-.6,3.51-.29.5-.64.84-.64,1.29s.3.79.84.79h9.25c.59,0,.89-.25.89-.79s-.35-.79-.65-1.29c-.49-.84-.59-1.48-.59-3.51V27.08c0-4.55-2.72-7.81-7.61-7.81A8.45,8.45,0,0,0,58,23.57V13.24c0-1.09-.14-1.29-1.33-1.29H50c-1.08,0-1.48.4-1.48,1.09A3.86,3.86,0,0,0,49,14.52a9.6,9.6,0,0,1,.55,3.76V39.2c0,2-.15,2.67-.59,3.51-.3.5-.65.84-.65,1.29s.3.79.89.79h9.2c.54,0,.84-.25.84-.79Zm42.23-11.72c0-8.76-5.54-13.11-12.86-13.11s-13,5-13,13.11c0,8.4,5.54,13.1,13,13.1s13-4.94,13-13.1Zm-8.7,1.18c0,5.59-1.39,9.1-3.91,9.1-2.67,0-4.55-3.66-4.55-11.57,0-5.54,1.44-9,3.91-9,2.67,0,4.55,3.56,4.55,11.47Zm36.94-1.93c0-7.51-3.66-12.36-9.65-12.36a8,8,0,0,0-7.31,4V13.24c0-1.09-.15-1.29-1.34-1.29h-6.72c-1.09,0-1.49.4-1.49,1.09a3.71,3.71,0,0,0,.5,1.48,9.83,9.83,0,0,1,.54,3.76V36.53c0,4.35-.2,5.69-.2,7a1.53,1.53,0,0,0,1.73,1.68,6.88,6.88,0,0,0,2.38-.59,4.1,4.1,0,0,1,1.43-.25,7.19,7.19,0,0,1,1.78.3,18.48,18.48,0,0,0,4.9.74c8.5,0,13.45-5.29,13.45-13.85Zm-14.1-7.66c3.27,0,5.15,3.76,5.15,10,0,5.83-2,8.7-4.5,8.7-2,0-3.51-2-3.51-4.55V27.33c0-2.22,1-3.46,2.86-3.46Zm34.52,21.41c3.27,0,5-.74,5-1.78,0-.44-.2-.64-.55-.94s-.89-.79-.89-2.62L153.74,28c0-5.34-3.21-8.9-11.27-8.9-6.93,0-10.44,2.82-10.44,6.53a3.66,3.66,0,0,0,3.81,3.91,3.41,3.41,0,0,0,3.66-3.27c0-1.28-.45-1.88-.45-2.72s.94-1.68,2.67-1.68c2.63,0,3.86,1.78,3.86,4.95v2.22c-10,.89-14.44,3.91-14.44,9.2,0,4.1,3.07,7.17,7.62,7.17a7.54,7.54,0,0,0,6.82-3.76c.1,2.33.94,3.61,4.55,3.61Zm-8.26-4c-1.93,0-3-1.64-3-3.52,0-2.91,2.17-5.09,6.72-6l-.05,5.44a3.91,3.91,0,0,1-3.66,4.06ZM167.24,44c0-.45-.34-.79-.64-1.29-.45-.84-.6-1.48-.6-3.51V28.42c0-2.67,1.59-4.9,3.52-4.9,1.68,0,2.67,1.19,2.67,3.51V39.2c0,2-.15,2.67-.6,3.51-.29.5-.64.84-.64,1.29s.3.79.84.79H181c.59,0,.89-.25.89-.79s-.35-.79-.64-1.29c-.5-.84-.6-1.48-.6-3.51V27.33c0-4.7-2.67-8.06-7.56-8.06a8.43,8.43,0,0,0-7.37,4.45V21.1c0-1.09-.15-1.33-1.34-1.33h-6.67c-1,0-1.39.39-1.39,1s.35.94.64,1.54c.5.89.55,1.78.55,3.76V39.2c0,2-.15,2.67-.59,3.51-.3.5-.65.84-.65,1.29s.3.79.89.79h9.2c.54,0,.84-.25.84-.79Zm16.32-30.07c0,2.42,1.83,4.4,4.94,4.4s4.95-2,4.95-4.4-1.83-4.4-4.95-4.4-4.94,1.93-4.94,4.4Zm.64,30.86h9.15c.59,0,.89-.25.89-.79s-.35-.79-.64-1.29c-.45-.84-.6-1.48-.6-3.51V21.1c0-1.09-.14-1.33-1.33-1.33h-6.92c-1,0-1.39.39-1.39,1s.35.94.64,1.54a7.79,7.79,0,0,1,.55,3.76V39.2c0,2-.15,2.67-.6,3.51-.29.5-.64.84-.64,1.29s.3.79.89.79Z" transform="translate(-17.75 -9.53)"/></svg>